<?xml version="1.0" encoding="utf-8"?>
<!-- Generator: Adobe Illustrator 25.0.1, SVG Export Plug-In . SVG Version: 6.00 Build 0)  -->
<svg version="1.0" id="katman_1" xmlns="http://www.w3.org/2000/svg" xmlns:xlink="http://www.w3.org/1999/xlink" x="0px" y="0px"
	 viewBox="0 0 800 600" style="enable-background:new 0 0 800 600;" xml:space="preserve">
<style type="text/css">
	.st0{fill-rule:evenodd;clip-rule:evenodd;fill:url(#SVGID_1_);}
	.st1{fill:url(#SVGID_2_);}
	.st2{fill-rule:evenodd;clip-rule:evenodd;fill:#FFFFFF;}
	.st3{fill-rule:evenodd;clip-rule:evenodd;fill:url(#SVGID_3_);}
	.st4{fill-rule:evenodd;clip-rule:evenodd;fill:url(#SVGID_4_);}
	.st5{fill-rule:evenodd;clip-rule:evenodd;fill:#4A4A4A;}
	.st6{fill:#4A4A4A;}
</style>
<g>
	
		<linearGradient id="SVGID_1_" gradientUnits="userSpaceOnUse" x1="34.4005" y1="585.1962" x2="38.6076" y2="585.1962" gradientTransform="matrix(14.3402 0 0 -14.336 135.3596 8656.915)">
		<stop  offset="0" style="stop-color:#EB712A"/>
		<stop  offset="0.2311" style="stop-color:#EF8528"/>
		<stop  offset="0.4715" style="stop-color:#F29426"/>
		<stop  offset="0.6242" style="stop-color:#F39A24"/>
	</linearGradient>
	<path class="st0" d="M658.7,237.3c-16.8,0-30.3,13.5-30.3,30.3s13.5,30.3,30.3,30.3s30.3-13.5,30.3-30.3
		C689,250.2,675.5,237.3,658.7,237.3z"/>
	
		<linearGradient id="SVGID_2_" gradientUnits="userSpaceOnUse" x1="14.9314" y1="589.4379" x2="19.1699" y2="589.4379" gradientTransform="matrix(29.8327 0 0 -21.12 100.1493 12735.1211)">
		<stop  offset="0" style="stop-color:#343434"/>
		<stop  offset="0.5455" style="stop-color:#696968"/>
		<stop  offset="1" style="stop-color:#696968"/>
	</linearGradient>
	<path class="st1" d="M660.3,306.5c-1.1,3.8-1.6,7-2.7,9.2l-0.5,1.1c-0.5,2.7-2.7,4.3-5.4,4.3h-1.6c-1.1,0-2.2-0.5-3.2-1.6
		c-0.5-1.1-1.1-2.2-1.1-3.2l1.6-10.8c0-0.5,0.5-1.6,1.1-2.2c-15.7-3.8-27-17.8-27-34.6c0-2.7,0.5-4.9,0.5-7.6h-44.3
		c-2.7,0-4.9-1.6-5.4-4.3l-2.2-9.2c-1.1-3.2-3.8-5.9-7.6-5.9h-13c-2.7,0-4.3,2.2-4.3,4.3c0,2.7,2.2,4.3,4.3,4.3h7
		c2.7,0,4.9,1.6,5.4,4.3l17.3,70.3c1.1,3.2,3.8,5.9,7.6,5.9h70.8c3.8,0,6.5-2.2,7.6-5.9l5.9-23.8c-3.8,1.6-7.6,2.2-11.4,2.7
		C660.9,305.4,660.9,305.9,660.3,306.5L660.3,306.5z M580.8,287c-0.5-2.7-1.6-5.4-2.2-7.6l-0.5-2.2c-0.5-1.1,0-2.2,0.5-3.2
		c0.5-1.1,2.2-1.6,3.2-1.6h4.9c2.7,0,4.9,1.6,4.9,4.3l1.6,9.7c0,1.1,0,2.2-1.1,3.2c-0.5,1.1-2.2,1.6-3.2,1.6h-2.7
		C583.5,290.8,581.4,289.2,580.8,287z M597.6,319.4c-0.5,1.1-2.2,1.6-3.2,1.6h-0.5c-2.7,0-4.9-1.6-5.4-4.3l-0.5-1.1
		c-0.5-2.7-1.6-5.9-2.7-9.7c-0.5-1.1,0-2.2,0.5-3.2c0.5-1.1,2.2-1.6,3.2-1.6h2.7c2.7,0,4.9,1.6,5.4,4.3l1.6,10.8
		C598.7,317.3,598.7,318.9,597.6,319.4z M617.6,317.3c0,2.2-1.6,3.8-3.8,3.8c-2.2,0-4.3-1.6-4.3-3.8l-1.6-11.4c0-1.1,0-2.2,1.1-3.2
		c0.5-1.1,2.2-1.6,3.2-1.6h1.6c2.7,0,4.9,2.2,4.9,4.9v11.4H617.6z M617.6,286.5c0,2.7-2.2,4.9-4.9,4.9H609c-2.7,0-4.9-1.6-5.4-4.3
		l-1.1-10.3c0-1.1,0-2.2,1.1-3.2c1.1-1.1,2.2-1.6,3.2-1.6h6.5c2.7,0,4.3,2.2,4.3,4.9V286.5z M638.2,305.9l-1.6,11.4
		c-0.5,2.2-2.2,3.8-4.3,3.8s-3.8-1.6-3.8-3.8v-11.4c0-2.7,2.2-4.9,4.9-4.9h1.6c1.1,0,2.2,0.5,3.2,1.6L638.2,305.9z"/>
	<path class="st2" d="M658.7,241.6l7.6,15.1l17.3,2.7l-12.4,11.9l2.7,16.8l-15.1-7.6l-15.1,7.6l2.7-16.8l-11.9-11.9l16.8-2.7
		L658.7,241.6z"/>
	
		<linearGradient id="SVGID_3_" gradientUnits="userSpaceOnUse" x1="72.7216" y1="556.1612" x2="76.9565" y2="556.1612" gradientTransform="matrix(6.1458 0 0 -6.4 131.7746 3911.3159)">
		<stop  offset="0" style="stop-color:#343434"/>
		<stop  offset="0.5455" style="stop-color:#696968"/>
		<stop  offset="1" style="stop-color:#696968"/>
	</linearGradient>
	<ellipse class="st3" cx="591.7" cy="351.9" rx="13" ry="13.5"/>
	
		<linearGradient id="SVGID_4_" gradientUnits="userSpaceOnUse" x1="80.4788" y1="556.1612" x2="84.7116" y2="556.1612" gradientTransform="matrix(6.1458 0 0 -6.4 146.6269 3911.3159)">
		<stop  offset="0" style="stop-color:#343434"/>
		<stop  offset="0.5455" style="stop-color:#696968"/>
		<stop  offset="1" style="stop-color:#696968"/>
	</linearGradient>
	<ellipse class="st4" cx="654.4" cy="351.9" rx="13" ry="13.5"/>
	<g transform="translate(47 42.12)">
		<path class="st5" d="M210.4,296.8c-5.9,4.3-15.1,5.9-27.6,5.9H165c-2.7,0-4.9,0-8.1,0c-2.7,0-5.4-0.5-8.1-1.1
			c-2.7-0.5-5.4-1.6-7.6-2.2c-2.7-1.1-4.9-2.7-6.5-4.3c-1.6-1.6-3.2-4.3-4.3-7c-1.1-2.7-1.6-5.9-1.6-10.3v-61.6H145v61.1
			c0,6.5,5.9,9.7,18.4,9.7h22.2c11.9,0,17.8-3.2,17.8-9.7v-61.1h16.2v62.2C219.1,286.5,216.4,293,210.4,296.8z"/>
		<path class="st5" d="M341.9,303.8V247L306.7,299c-1.1,1.6-2.7,3.2-4.3,4.3s-3.2,1.6-5.4,1.6c-3.8,0-7-1.6-9.7-5.4l-35.2-53v57.3
			h-16.2v-78.4c0-3.2,1.1-5.4,2.7-7c1.6-1.6,3.8-2.7,6.5-2.7c3.8,0,7,1.6,9.2,4.3l43.8,62.7l43.3-62.2c2.2-3.2,4.9-4.9,8.7-4.9
			c2.7,0,4.9,1.1,6.5,2.7c1.6,1.6,2.7,4.3,2.7,7.6v77.3h-17.3V303.8z"/>
		<path class="st5" d="M374.3,303.3v-87h16.2v87H374.3z"/>
		<path class="st6" d="M500.8,303.8L487.3,280h-50.8l-13,23.8H404l48.7-81.6c2.2-3.8,5.4-5.9,9.2-5.9s7,2.2,9.2,5.9l47.6,81.6H500.8
			z M461.9,237.9l-15.7,26h31.4L461.9,237.9z"/>
		<path class="st5" d="M112.5,264.3c0,26.5-9.7,37.8-27,41.6c-16.8,3.2-22.2,3.2-22.2,3.2v-17.8c6.5-0.5,16.8-1.6,23.3-3.8
			c5.9-2.2,10.3-8.1,10.3-23.2l0.5-31.9v-16.2h16.2L112.5,264.3z"/>
	</g>
</g>
</svg>
